<?xml version="1.0" encoding="UTF-8"?>
<svg id="Camada_2" data-name="Camada 2" xmlns="http://www.w3.org/2000/svg" viewBox="0 0 105.19 114.23">
  <defs>
    <style>
      .cls-1 {
        fill: #c0948a;
      }
    </style>
  </defs>
  <g id="Camada_1-2" data-name="Camada 1">
    <g>
      <path class="cls-1" d="M101.51,95.91c1.72,2.96,2.49,5.89,1.18,9.19-2.85,7.23-13.26,7.85-19.88,7.7-.62-.01-1.21-.31-1.88-.18s-1.15,1.36-2.25,1.54c-4.13.64-11.18-3.57-15.27-4.86-9.58-3.02-17.11.3-26.46,1.89-8.02,1.37-22.69,3.3-29.84-.89-5.36-3.14-6.51-9.03-3.61-14.39-1.38-.13-2.9-1.33-3.28-2.66-.42-1.48-.24-4.89.78-6.13.28-.34.89-.66,1.03-.87.42-.64-.08-1.4,1.03-1.9,2.18-.97,6.61-.49,8.97-.16l.36-.16c2-2.63,3.73-5.44,5.69-8.1,1.65-2.24,6.58-7.67,7.09-9.96.18-.82.29-2.02.39-2.89.69-6.22.1-18.4,2.84-23.52,2.34-4.37,10.91-5.95,15.31-8.12.94-.46,1.25-.54,1.75-1.52.39-.76.97-2.88.73-3.68-.06-.21-1.59-1.8-1.93-2.37-.62-1.04-.77-2.2-1.23-3.08-.25-.48-1.13-1.2-1.49-1.79-1.05-1.73-1.37-4.18-.46-6.04.25-.51.88-.97.98-1.26.29-.93.28-2.38.6-3.53,1.55-5.48,6.78-9.48,12.53-7.8,4.79,1.4,6.92,4.92,7.73,9.67.08.49-.07,1.04.06,1.49.12.42,1.11,1.32,1.38,2.07.62,1.72.2,3.7-.7,5.23-.36.62-.93,1.06-1.21,1.55-.61,1.05-.92,2.47-1.67,3.67-.3.48-1.71,2.03-1.76,2.2-.3,1,.63,3.82,1.43,4.53,1.16,1.03,5.94,2.47,7.67,3.19,4.86,2.02,9.06,3.32,9.98,9.32.98,6.41,1.02,13.44,1.91,19.96.73,5.3,2.88,6.69,5.82,10.71,1.82,2.5,3.59,5.19,5.47,7.62.41.53,1.88,2.55,2.4,2.6,2.07-.39,4.26-.48,6.37-.34.42.03,1.75.12,2.03.21.92.26.79,1.76,1.08,2.37.17.36.91.82,1.19,1.23.92,1.35,1.12,5,.42,6.43-.61,1.24-1.97,1.66-3.25,1.83ZM51.69,1.72c-4.35.59-6.85,3.94-7.66,8.02-.17.88-.15,2.51-.43,3.19-.11.27-.63.47-.92.98-.84,1.46-.35,3.27.69,4.49.27.32.75.5.92.8.25.45.38,1.5.64,2.12.77,1.83,2.42,4.51,4.22,5.43,4.77,2.44,8.77-.11,10.71-4.62.29-.67.69-2.56.93-2.86.3-.4.85-.34,1.35-1.23.73-1.29,1.12-2.71.31-4.06-.88-1.48-.78-.4-1.09-2.53-.4-2.75-1.43-6.43-3.85-8.04-1.69-1.12-3.76-1.95-5.82-1.67ZM4.1,88.16h3.01c.02.29-.04.58-.23.81-.33.41-3.69,2.6-3.91,1.51l.52-.77c-.73-.09-1.21-.64-1.21-1.38-.29-.3-.67,2.07-.68,2.33-.16,2.19.16,3.14,2.37,3.65,5.99,1.38,9.6-3.57,13.3-7.1,1.82-1.73,3.66-3.47,5.51-5.17,2.38-2.18,8.14-6.38,9.31-9.12,1.25-2.95,3.17-10.65,3.43-13.81.14-1.77-1.09-5.29-1.2-7.38-.03-.62-.11-1.77.43-2.17s.94.12,1.12.63c.43,1.23.49,4.39.76,5.96.81,4.89,2.67,10.04,2.36,15.04-.2,3.09-1.5,9.14-2.98,11.84-1.16,2.13-3.47,2.74-5.68,3.45-5.22,1.7-11.59,2.83-16.27,5.78-.86.54-1.64,1.4-2.51,1.97-1.88,1.22-4.03,1.94-6.3,1.88-2.72,4.46-2.39,9.84,2.33,12.69,7.18,4.32,22.66,1.96,30.75.5,8.7-1.58,15.67-4.31,24.64-1.96,4.52,1.18,8.81,3.85,13.27,4.99,2.28.58,3.32.14,1.6-1.94-2.11-2.54-5.36-4.3-7.41-6.71-2.98-3.49-3.82-9.44-9.78-7.2-1.9.72-2.11,2.06-4.26,2.63-6.34,1.67-13.84-1.73-20.02-3.07-3.16-.69-6.11-.98-9.36-.81-.63.03-2.96.71-3.17.07-.42-1.26,3.07-1.57,3.86-1.62,9.45-.61,18,4.94,27.05,4.14,3.09-.27,3.55-1.99,5.83-2.79,2.52-.88,4.49-.27,6.58,1.24,2.39-1.38,5.73-1.38,8.45-1.21,1.07.07,5.57.75,6.21,1.37.34.34.41,1.44-.02,1.54-.23.05-3.8-1.02-4.51-1.14-2.32-.4-5.18-.55-7.52-.2-.39.06-2.02.39-1.98.9.03.35,2.42,4.15,2.82,4.6,1.38,1.58,3.66,2.69,5.26,4.04,1.67,1.43,3.16,3.36,4.82,4.82,5.56.5,12.53.44,17.45-2.53,4.38-2.64,4.8-8.41,1.6-12.21-2.41-.3-4.48-.9-6.45-2.33-2.52-1.83-3.85-2.81-6.87-3.99-4.07-1.58-8.33-2.29-12.41-3.62-3.65-1.19-4.72-2.26-6.02-5.87-3.53-9.75-1.44-14.51.24-23.95.34-1.9.39-4.33.82-6.07.16-.65.6-1.05,1.3-1.01.97,2.7-.45,5.85-.66,8.54-.14,1.76,1.7,9.7,2.27,11.82.84,3.13,1.8,4.53,4.08,6.77,3.28,3.22,7.26,6.18,10.69,9.3,3.96,3.6,9.2,10.63,15.5,8.44,2.23-.77,1.44-4.27.69-5.94-.41.28-.34,1.02-1.03,1.04-.15.43.46.41.52.63.16.59-.26.72-.8.73-.8.02-3.75-1.42-3.33-2.57,2.56.19,3.58.55,3-2.6-.35-.25-4.25-.2-4.99-.16-1.1.05-2.3.56-3.4.3-.54-.12-1.86-1.86-2.26-2.38-3.68-4.72-7-9.76-10.64-14.51-1.78-3.17-1.99-10.01-2.38-13.81-.41-3.96-.3-12.39-2.69-15.4-2.13-2.69-10.1-4.73-13.45-6.36-2.48-1.2-3.5-2.69-4.11-5.37-3.05,1.99-6.61,1.59-9.73,0,.13,1.89-.8,3.58-2.25,4.73-4.05,2.08-8.83,3.2-12.85,5.24-2.72,1.37-3.48,3.67-3.97,6.54-.72,4.19-.88,9.25-1.25,13.56-.3,3.4-.05,7.04-1.31,10.23-2.6,3.32-5.25,6.61-7.72,10.03-1.33,1.85-3.6,6.04-5.1,7.31-.9.76-2.36-.01-3.53-.1-1.05-.08-5.07-.18-5.69.53-.39.45-.44,2.07.17,2.24ZM87.04,88.5c-5.05-4.84-10.8-9.04-15.23-14.48-1.76-3.63-2.19-7.95-3.12-11.87l-1.13,6.11c.11,4.42.75,13.93,5.35,16.03l14.12,4.22ZM18.31,88.5l13.65-4.17c2.72-1.15,3.16-2.73,3.9-5.4,1.01-3.64,1.74-7.74,1.37-11.51-.15-1.54-.56-3.07-.84-4.59l-1.98,8.27c-1.43,5.47-6.79,8.71-10.77,12.32-1.82,1.64-3.52,3.44-5.34,5.08Z"/>
      <g>
        <circle class="cls-1" cx="52.58" cy="50.33" r="3.73"/>
        <circle class="cls-1" cx="52.6" cy="37.11" r="3.55"/>
        <circle class="cls-1" cx="52.48" cy="89.59" r="3.51"/>
        <circle class="cls-1" cx="52.44" cy="76.57" r="3.36"/>
        <path class="cls-1" d="M52.2,60.64c4.6-.65,5,7.09-.37,6.32-3.27-.47-3.21-5.81.37-6.32Z"/>
      </g>
      <g>
        <path class="cls-1" d="M31.67,24.08c-2.96-.02-4.3,2.57-4.48,5.2-.1-2.77-1.51-5.08-4.48-5.27,3.02-.54,4.35-2.44,4.48-5.43.38,2.52.77,4.08,3.29,5.05.4.15,1.01.04,1.19.46Z"/>
        <path class="cls-1" d="M81.52,18.42l-1.89.55c-1.64.72-1.9,2.42-2.12,4.01-.1-2.68-1.26-4.26-4.01-4.49,2.66-.24,3.91-1.68,4.01-4.33.24,2.55,1.29,4.13,4.01,4.25Z"/>
        <path class="cls-1" d="M10.63,70.91l-1.58.86-1.33,1.82c-.55-1.22-1.38-2.18-2.59-2.75,1.27-.72,2.01-1.75,2.83-2.91.3,1.45,1.58,2.17,2.67,2.99Z"/>
        <path class="cls-1" d="M93.27,36.96l-3.02.51c-1.25,0-.92,4.05-1.14,4.05l-.71-3.86-3.62-.63c0-.19,3.1-.18,3.62-.78.49-.56.52-3.55.7-3.55.15,1.21.13,2.48.63,3.62l3.54.63Z"/>
        <path class="cls-1" d="M78.65,2.84l-1.41.39c-1.11.49-1.11,1.57-1.33,2.6-.11-1.86-.8-2.9-2.75-2.91C75,2.66,75.84,1.93,75.9,0c.23,1.74.9,2.73,2.75,2.84Z"/>
      </g>
    </g>
  </g>
</svg>